PathFileType	4	(X/Y/Z)	s02c0402.trc
DataRate	CameraRate	NumFrames	NumMarkers	Units	OrigDataRate	OrigDataStartFrame	OrigNumFrames
200	200	4	50	mm	200	250	2000
Frame#	Time	racr			lacr			c7			jug			rlel			rdr			llel			ldr			s2			lic			ric			lasi			rasi			rpsi			lpsi			rgt			lgt			rth1			rth2			rth3			rth4			rlfc			rmfc			rsh1			rsh2			rsh3			rsh4			rlmal			rmmal			rtoe			rmt5			rmt1			lth1			lth2			lth4			lth3			llfc			lmfc			lsh1			lsh2			lsh3			lsh4			llmal			lmmal			lcal			ltoe			lmt5			SBIKE			LBIKE			RBIKE			
		X1	Y1	Z1	X2	Y2	Z2	X3	Y3	Z3	X4	Y4	Z4	X5	Y5	Z5	X6	Y6	Z6	X7	Y7	Z7	X8	Y8	Z8	X9	Y9	Z9	X10	Y10	Z10	X11	Y11	Z11	X12	Y12	Z12	X13	Y13	Z13	X14	Y14	Z14	X15	Y15	Z15	X16	Y16	Z16	X17	Y17	Z17	X18	Y18	Z18	X19	Y19	Z19	X20	Y20	Z20	X21	Y21	Z21	X22	Y22	Z22	X23	Y23	Z23	X24	Y24	Z24	X25	Y25	Z25	X26	Y26	Z26	X27	Y27	Z27	X28	Y28	Z28	X29	Y29	Z29	X30	Y30	Z30	X31	Y31	Z31	X32	Y32	Z32	X33	Y33	Z33	X34	Y34	Z34	X35	Y35	Z35	X36	Y36	Z36	X37	Y37	Z37	X38	Y38	Z38	X39	Y39	Z39	X40	Y40	Z40	X41	Y41	Z41	X42	Y42	Z42	X43	Y43	Z43	X44	Y44	Z44	X45	Y45	Z45	X46	Y46	Z46	X47	Y47	Z47	X48	Y48	Z48	X49	Y49	Z49	X50	Y50	Z50	
250	1.2500	459.544184	1315.830003	-148.170610	466.526717	1321.308185	-505.541559	478.944177	1362.153052	-332.598246	428.955956	1235.025297	-326.602008	582.969085	1072.235827	-121.011677	722.195783	889.133920	-122.202369	563.765391	1063.122427	-541.931637	701.046759	883.550033	-515.252474	-1.352257	1093.073599	-326.834786	144.271531	1092.734434	-463.996315	124.550334	1115.807327	-185.610236	193.836941	1065.268720	-436.314962	175.997769	1081.322954	-204.004757	15.130154	1138.342956	-288.288256	23.861411	1141.506319	-373.964178	108.843707	1036.777960	-135.253808	93.516840	997.743267	-493.589674	194.085077	1008.298603	-135.221810	281.547045	999.241135	-144.385395	354.285452	959.315580	-121.675494	290.544003	1021.959781	-173.579117	475.098903	871.203684	-156.194553	469.115940	851.713555	-268.374101	455.357265	760.172606	-140.104273	435.167102	674.252416	-158.958092	382.863202	607.149817	-151.417571	449.383160	670.617959	-195.123826	321.148125	502.721100	-156.522504	329.345391	523.744663	-237.341213	533.865740	452.210806	-193.233458	425.526354	432.213630	-136.716871	452.929331	447.062823	-244.834094	196.694729	900.704399	-508.737300	262.707545	843.824417	-506.568111	289.964365	862.412021	-489.782462	289.815831	758.879177	-505.646927	340.442278	670.804056	-483.632381	341.326660	641.901501	-378.816290	288.031306	580.353170	-502.926498	254.694207	502.012724	-486.324543	184.003440	446.259098	-489.470716	271.684096	493.067539	-450.005694	107.409553	373.576591	-471.886963	123.301260	362.211004	-395.733394	28.065171	358.840114	-432.615245	262.109442	193.172480	-443.751120	159.510708	230.955930	-501.580189	-165.655794	857.336313	-315.818351	32.521821	82.332167	-515.255353	32.373739	82.358207	-115.199127	
251	1.2550	459.548376	1315.838675	-148.230795	466.502583	1321.290691	-505.591865	478.949559	1362.129502	-332.627465	428.982488	1235.044331	-326.679095	582.962570	1072.241498	-120.989553	722.195695	889.127956	-122.184901	563.731012	1063.119563	-541.953829	701.047936	883.543872	-515.236839	-1.357951	1093.060337	-326.814119	144.244588	1092.725253	-464.029846	124.561098	1115.827357	-185.624151	193.832759	1065.254421	-436.347374	176.001175	1081.357499	-204.020035	15.124463	1138.349718	-288.282278	23.869881	1141.502585	-374.018701	108.843230	1036.801535	-135.251902	93.490964	997.736040	-493.600340	194.094324	1008.307466	-135.220239	281.550503	999.242832	-144.394519	354.285458	959.333284	-121.674980	290.549863	1021.977060	-173.586008	475.111380	871.206689	-156.215580	469.116114	851.715927	-268.375190	455.356437	760.194323	-140.098092	435.158466	674.269152	-158.971791	382.846469	607.156855	-151.415219	449.377528	670.618114	-195.112103	321.134891	502.747848	-156.528353	329.306931	523.769887	-237.369515	533.853853	452.233425	-193.225125	425.501949	432.242113	-136.719444	452.917109	447.084561	-244.829169	196.654693	900.693510	-508.755501	262.666089	843.823421	-506.593337	289.920624	862.412527	-489.810671	289.769439	758.865948	-505.667799	340.420905	670.808793	-483.650570	341.313152	641.915982	-378.821931	288.009845	580.352424	-502.951021	254.696113	502.001283	-486.343238	183.996973	446.222895	-489.487092	271.666821	493.066692	-450.016123	107.434226	373.544452	-471.887567	123.310903	362.197153	-395.729066	28.084374	358.786474	-432.587488	262.122642	193.123787	-443.728567	159.525066	230.928610	-501.588553	-165.679831	856.361531	-318.720705	32.526026	82.334618	-515.268412	32.368372	82.355527	-115.201247	
252	1.2600	459.545147	1315.832481	-148.257269	466.500122	1321.278912	-505.644945	478.953186	1362.122252	-332.679018	429.004927	1235.016073	-326.701776	582.971047	1072.233856	-120.983486	722.206503	889.106940	-122.157003	563.713421	1063.098786	-542.002641	701.024807	883.525912	-515.215887	-1.367076	1093.064493	-326.828598	144.230067	1092.720485	-464.030837	124.563644	1115.864319	-185.627279	193.810834	1065.230512	-436.360537	175.994724	1081.364091	-204.065657	15.122843	1138.359820	-288.286037	23.829513	1141.513985	-373.982448	108.852917	1036.820846	-135.248886	93.467512	997.723346	-493.600089	194.093449	1008.324306	-135.220916	281.551959	999.273570	-144.382189	354.301881	959.334130	-121.660858	290.547559	1021.989069	-173.587838	475.098264	871.207943	-156.211368	469.112142	851.724514	-268.392742	455.340827	760.210382	-140.089688	435.124697	674.289860	-158.977164	382.802411	607.182653	-151.417717	449.340427	670.637049	-195.118026	321.087978	502.770465	-156.508901	329.269162	523.803926	-237.371860	533.825185	452.290098	-193.243894	425.471271	432.252501	-136.740799	452.866201	447.106858	-244.822955	196.615517	900.681210	-508.759568	262.621948	843.821605	-506.621860	289.883960	862.409145	-489.828993	289.735240	758.855330	-505.690267	340.385871	670.805245	-483.674368	341.290858	641.914976	-378.840767	288.015120	580.344640	-502.985462	254.686210	501.970701	-486.354989	184.030153	446.206516	-489.504960	271.686510	493.049963	-450.035790	107.487172	373.497182	-471.913879	123.367278	362.174820	-395.732108	28.125427	358.775036	-432.605710	262.158963	193.084936	-443.734472	159.548175	230.889513	-501.573858	-165.651370	856.393337	-318.628680	32.517290	82.344683	-515.279585	31.884746	82.810183	-115.191115	
253	1.2650	459.544577	1315.823197	-148.303701	466.486813	1321.269210	-505.682683	478.952585	1362.103406	-332.715241	428.988601	1235.031818	-326.732368	582.991127	1072.255027	-120.976954	722.221765	889.125802	-122.156742	563.706698	1063.103765	-542.051392	701.018507	883.509641	-515.190033	-1.376230	1093.079659	-326.809746	144.210107	1092.717378	-464.022485	124.563349	1115.868362	-185.640646	193.790248	1065.220337	-436.381085	175.990989	1081.391231	-204.075730	15.116184	1138.385239	-288.282458	23.844036	1141.499946	-374.012894	108.880244	1036.825435	-135.255150	93.437266	997.726179	-493.597033	194.089460	1008.336439	-135.214958	281.531408	999.282674	-144.373411	354.281219	959.343615	-121.657735	290.551706	1021.988864	-173.567777	475.096795	871.218802	-156.211976	469.111756	851.743076	-268.391789	455.318823	760.223924	-140.083053	435.116617	674.293800	-158.973003	382.768524	607.194482	-151.419171	449.311130	670.668166	-195.142154	321.050799	502.787959	-156.526959	329.206272	523.823496	-237.374612	533.788078	452.350118	-193.237284	425.432024	432.296789	-136.720858	452.814757	447.145373	-244.818897	196.600520	900.684995	-508.774571	262.596363	843.817478	-506.626541	289.855870	862.408617	-489.833925	289.713391	758.867735	-505.703721	340.385887	670.820759	-483.703304	341.304094	641.950663	-378.865833	288.013177	580.355131	-503.001522	254.731676	501.974237	-486.355578	183.972679	446.257830	-489.434813	271.725397	493.057318	-450.062353	107.569125	373.460782	-471.905318	123.428481	362.135762	-395.750625	28.203834	358.767587	-432.613648	262.180370	193.006094	-443.745933	159.600499	230.828552	-501.581742	-165.710699	857.229772	-316.119118	32.521288	82.332322	-515.267497	31.891868	82.811507	-115.191548	
